<svg width="54" height="67" viewBox="0 0 54 67" fill="none" xmlns="http://www.w3.org/2000/svg">
<g clip-path="url(#clip0_1039_13)">
<path d="M10.5281 26.1729H35.1778C35.373 26.1882 35.569 26.1882 35.7641 26.1729C36.0211 26.1536 36.2612 26.0379 36.4362 25.849C36.6112 25.6602 36.708 25.4122 36.7073 25.1549C36.7214 24.889 36.6305 24.6281 36.4542 24.4283C36.2779 24.2285 36.0301 24.1056 35.7641 24.086C35.5468 24.0732 35.3289 24.0732 35.1116 24.086H22.8759C18.7668 24.086 14.6593 24.086 10.5536 24.086C9.45239 24.086 8.97316 24.3863 8.95277 25.104C8.93237 25.8217 9.4167 26.1729 10.5281 26.1729Z" fill="white"/>
<path d="M22.5395 50.7425C22.7639 42.4304 29.9727 35.4724 38.3439 35.5996C40.6795 35.6319 42.981 36.163 45.0939 37.1572V34.775C42.4303 33.7934 39.5934 33.3672 36.7584 33.5229C36.5697 32.5558 35.9019 32.4387 35.0556 32.4387C26.8611 32.4387 18.67 32.4387 10.4823 32.4387H10.0898C9.36582 32.4693 8.92737 32.8663 8.92228 33.4924C8.92475 33.6386 8.95801 33.7828 9.01989 33.9154C9.08177 34.048 9.17089 34.1661 9.28146 34.2621C9.39204 34.3581 9.52159 34.4298 9.66172 34.4726C9.80185 34.5154 9.94942 34.5282 10.0949 34.5104H31.5072C31.6398 34.5104 31.7673 34.5104 31.859 34.5104C30.6813 35.1721 29.4833 35.8541 28.2903 36.5107C28.0864 36.5843 27.8681 36.6087 27.653 36.582H10.1509C9.9985 36.5626 9.84366 36.5756 9.69666 36.6204C9.54966 36.6651 9.41384 36.7405 9.29819 36.8415C9.18254 36.9425 9.08968 37.0669 9.02575 37.2065C8.96183 37.346 8.9283 37.4975 8.92737 37.6509C8.92737 38.277 9.4066 38.6689 10.1815 38.6689H25.5933C25.0122 39.3713 24.5278 40.0025 23.9823 40.5828C23.7732 40.7203 23.5228 40.7815 23.2737 40.7558C19.0116 40.7558 14.7529 40.7558 10.4976 40.7558C10.2789 40.7354 10.0587 40.7354 9.83995 40.7558C9.56953 40.7558 9.31018 40.8631 9.11896 41.054C8.92774 41.2449 8.82031 41.5038 8.82031 41.7738C8.82031 42.0438 8.92774 42.3028 9.11896 42.4937C9.31018 42.6846 9.56953 42.7918 9.83995 42.7918C10.035 42.8098 10.2312 42.8098 10.4262 42.7918H22.5089C22.2082 43.4739 21.9583 44.1152 21.6372 44.7159C21.5658 44.8482 21.2242 44.8787 21.0101 44.8787C17.5331 44.8787 14.0596 44.8787 10.5894 44.8787H10.1305C9.39641 44.8787 8.94267 45.2809 8.92228 45.8967C8.90188 46.5126 9.37092 46.9707 10.1356 46.9707H20.9336C20.8062 47.6783 20.6889 48.3349 20.5614 49.0678H10.4976C10.3192 49.0678 10.1458 49.0678 9.9878 49.0678C9.71196 49.0678 9.44743 49.1772 9.25239 49.372C9.05734 49.5667 8.94777 49.8308 8.94777 50.1062C8.94777 50.3816 9.05734 50.6457 9.25239 50.8404C9.44743 51.0352 9.71196 51.1446 9.9878 51.1446C10.6862 51.1446 11.3847 51.1446 12.0832 51.1446H20.4391C20.4691 54.4742 21.4105 57.7323 23.1615 60.5662H25.7106C23.5893 57.7346 22.4735 54.2779 22.5395 50.7425Z" fill="white"/>
<path d="M35.412 28.2649H10.4308C10.2611 28.2529 10.0907 28.2529 9.92102 28.2649C9.66835 28.2825 9.43129 28.3934 9.256 28.5759C9.08071 28.7585 8.97974 28.9996 8.97276 29.2524C8.95582 29.5184 9.04405 29.7804 9.21849 29.9822C9.39294 30.1839 9.63968 30.3093 9.90573 30.3315C10.1451 30.3468 10.3852 30.3468 10.6246 30.3315H22.8602C27.0509 30.3315 31.2399 30.3315 35.4273 30.3315C36.2277 30.3315 36.7222 29.9344 36.7375 29.3135C36.7528 28.6925 36.2379 28.2802 35.412 28.2649Z" fill="white"/>
<path d="M42.6665 0C33.7141 0 24.7599 0 15.8041 0C15.4266 0.0105758 15.0652 0.154918 14.7845 0.407202C10.0262 5.09342 5.26788 9.78133 0.509572 14.4709C0.343024 14.6195 0.211076 14.8026 0.123 15.0075C0.0349236 15.2124 -0.00714396 15.4341 -0.000246896 15.6569C-0.000246896 29.8547 -0.000246896 44.0508 -0.000246896 58.2452C-0.000246896 59.9198 0.800169 60.7138 2.49277 60.7138H23.1608C21.4098 57.8799 20.4684 54.6218 20.4384 51.2922H12.0723C11.3738 51.2922 10.6754 51.2922 9.9769 51.2922C9.70107 51.2922 9.43654 51.1828 9.24149 50.9881C9.04645 50.7933 8.93688 50.5292 8.93688 50.2538C8.93688 49.9784 9.04645 49.7143 9.24149 49.5196C9.43654 49.3248 9.70107 49.2155 9.9769 49.2155C10.1502 49.2155 10.3236 49.2155 10.4867 49.2155H20.5607C20.6882 48.4825 20.8055 47.8259 20.9329 47.1184H10.14C9.37532 47.1184 8.91138 46.6857 8.92668 46.0444C8.94197 45.403 9.40081 45.0264 10.1349 45.0264H10.5938C14.064 45.0264 17.5375 45.0264 21.0145 45.0264C21.2286 45.0264 21.5702 44.9958 21.6416 44.8635C21.9627 44.2629 22.2126 43.6215 22.5133 42.9395H10.4306C10.2356 42.9574 10.0394 42.9574 9.84435 42.9395C9.57393 42.9395 9.31458 42.8322 9.12336 42.6413C8.93214 42.4504 8.82471 42.1914 8.82471 41.9214C8.82471 41.6515 8.93214 41.3925 9.12336 41.2016C9.31458 41.0107 9.57393 40.9034 9.84435 40.9034C10.0631 40.883 10.2833 40.883 10.502 40.9034C14.7607 40.9034 19.0194 40.9034 23.2781 40.9034C23.5284 40.8998 23.7697 40.8099 23.9612 40.6489C24.5067 40.0687 24.9809 39.4375 25.5723 38.7351H10.1961C9.4212 38.7351 8.94707 38.333 8.94197 37.7171C8.9429 37.5637 8.97643 37.4122 9.04035 37.2726C9.10428 37.1331 9.19713 37.0087 9.31279 36.9077C9.42844 36.8066 9.56426 36.7313 9.71126 36.6865C9.85826 36.6418 10.0131 36.6287 10.1655 36.6482H27.6523C27.8674 36.6748 28.0858 36.6504 28.2896 36.5769C29.503 35.9203 30.701 35.2382 31.8583 34.5765C31.7666 34.5765 31.6391 34.5765 31.5065 34.5765H10.0942C9.94873 34.5944 9.80116 34.5815 9.66103 34.5388C9.5209 34.496 9.39134 34.4243 9.28077 34.3283C9.1702 34.2323 9.08108 34.1142 9.0192 33.9815C8.95732 33.8489 8.92406 33.7048 8.92158 33.5585C8.92158 32.9325 9.36512 32.5405 10.0891 32.5049H10.4816C18.6761 32.5049 26.8672 32.5049 35.0549 32.5049C35.9012 32.5049 36.5843 32.622 36.7577 33.5891C39.5927 33.4334 42.4296 33.8595 45.0932 34.8412V33.9352C45.0932 23.4158 45.0932 12.9066 45.0932 2.40758C45.0983 0.819494 44.2775 0 42.6665 0ZM13.826 4.42832C13.8523 4.58498 13.8693 4.74305 13.877 4.90169C13.877 7.01236 13.877 9.12472 13.877 11.2388C13.877 12.8778 13.0562 13.6922 11.4248 13.6973C9.38552 13.6973 7.35644 13.6973 5.33756 13.6973C5.10304 13.6973 4.86852 13.6973 4.56263 13.6667L13.826 4.42832ZM10.5275 24.0809C14.6366 24.0809 18.7441 24.0809 22.8498 24.0809H35.0855C35.3028 24.0681 35.5207 24.0681 35.738 24.0809C35.8729 24.0874 36.0051 24.1206 36.1271 24.1785C36.249 24.2364 36.3582 24.3179 36.4483 24.4183C36.5384 24.5187 36.6076 24.636 36.652 24.7633C36.6964 24.8906 36.715 25.0254 36.7067 25.16C36.7074 25.4173 36.6106 25.6653 36.4356 25.8541C36.2606 26.043 36.0205 26.1587 35.7635 26.178C35.5684 26.1932 35.3724 26.1932 35.1772 26.178H10.5275C9.4161 26.178 8.90629 25.8268 8.92668 25.0938C8.94707 24.3609 9.4263 24.0809 10.5275 24.0809ZM35.3914 30.3671C31.2075 30.3671 27.0184 30.3671 22.8243 30.3671H10.5887C10.3493 30.3824 10.1092 30.3824 9.86984 30.3671C9.6038 30.345 9.35705 30.2196 9.18261 30.0178C9.00816 29.816 8.91994 29.554 8.93688 29.288C8.94386 29.0352 9.04483 28.7941 9.22012 28.6115C9.39541 28.429 9.63247 28.3181 9.88514 28.3005C10.0549 28.2886 10.2252 28.2886 10.395 28.3005H35.4118C36.2377 28.3005 36.7118 28.7077 36.7016 29.3644C36.6914 30.021 36.1969 30.3671 35.3914 30.3671Z" fill="#C4B8FF"/>
<path d="M45.0938 37.1572V46.2225C45.2979 46.0939 45.541 46.0417 45.78 46.0753C46.019 46.1088 46.2383 46.2259 46.399 46.4057C46.4929 46.5051 46.5646 46.6232 46.6095 46.7523C46.6544 46.8814 46.6714 47.0185 46.6593 47.1546C46.6473 47.2907 46.6065 47.4227 46.5396 47.5419C46.4728 47.6611 46.3814 47.7648 46.2715 47.8462L45.0938 48.9202V60.7138H25.7207C27.1487 62.6184 28.9918 64.1739 31.1106 65.2627C33.2294 66.3514 35.5684 66.9449 37.9508 66.9983C40.3332 67.0517 42.6965 66.5635 44.8621 65.5708C47.0276 64.578 48.9388 63.1067 50.451 61.2679C51.9632 59.4292 53.0368 57.2713 53.5907 54.9573C54.1446 52.6433 54.1642 50.2339 53.6481 47.9112C53.1321 45.5885 52.0938 43.4134 50.6118 41.5503C49.1298 39.6873 47.2429 38.185 45.0938 37.1572Z" fill="#8A8AFF"/>
<path d="M45.0937 56.5247V48.9253C42.3254 51.4703 39.552 53.9696 36.7429 56.5247L33.3271 53.6692L30.5129 51.3126C29.8348 50.7425 29.7125 50.2131 30.1407 49.7041C30.569 49.1951 31.2011 49.1951 31.869 49.7754L36.6766 53.8067L40.3677 50.4676C41.8513 49.1137 43.3297 47.7597 44.8235 46.3956C44.9077 46.3233 44.9981 46.2586 45.0937 46.2022V37.1572C42.9746 36.1602 40.6658 35.629 38.3233 35.5997C29.9725 35.452 22.7636 42.4305 22.5189 50.7425C22.4184 54.3299 23.536 57.8458 25.69 60.7189H45.0631L45.0937 56.5247Z" fill="#4745EC"/>
<path d="M11.4246 13.6973C13.056 13.6973 13.8717 12.8778 13.8768 11.2388C13.8768 9.12813 13.8768 7.01577 13.8768 4.90172C13.8691 4.74307 13.852 4.58501 13.8258 4.42834L4.58789 13.6667C4.89378 13.6667 5.1283 13.6973 5.36282 13.6973C7.3749 13.7041 9.39548 13.7041 11.4246 13.6973Z" fill="#4745EC"/>
<path d="M46.2707 47.8462C46.3802 47.7644 46.4712 47.6604 46.5376 47.541C46.6039 47.4216 46.6442 47.2895 46.6558 47.1534C46.6674 47.0173 46.6499 46.8803 46.6046 46.7515C46.5593 46.6226 46.4872 46.5048 46.393 46.4057C46.2324 46.2259 46.0131 46.1088 45.7741 46.0753C45.5351 46.0417 45.292 46.0939 45.0879 46.2225V48.9253L46.2707 47.8462Z" fill="#C4B8FF"/>
<path d="M40.3671 50.4676L36.676 53.8067L31.8684 49.7754C31.2006 49.2155 30.5684 49.1951 30.1401 49.7041C29.7119 50.2131 29.8342 50.7221 30.5123 51.3126L33.3265 53.6692L36.7423 56.5247C39.5514 53.9797 42.3503 51.4347 45.0931 48.9253V46.2225C44.9975 46.2789 44.9071 46.3437 44.8229 46.416C43.3342 47.7597 41.8507 49.1137 40.3671 50.4676Z" fill="white"/>
</g>
<defs>
<clipPath id="clip0_1039_13">
<rect width="54" height="67" fill="white"/>
</clipPath>
</defs>
</svg>
