<svg width="226" height="44" viewBox="0 0 226 44" fill="none" xmlns="http://www.w3.org/2000/svg">
<path d="M10.1255 3.24902H10.3962C10.7933 3.24902 10.9918 3.44756 10.9918 3.84464V4.87343C10.9918 5.27051 10.7933 5.46904 10.3962 5.46904H10.1796C8.7718 5.46904 7.77911 5.92027 7.20154 6.82272C6.66007 7.68907 6.38934 9.00664 6.38934 10.7754V18.2477C6.38934 21.0634 5.41469 22.7961 3.4654 23.4458C5.41469 24.0234 6.38934 25.7561 6.38934 28.6439V36.062C6.38934 37.8308 6.66007 39.1484 7.20154 40.0148C7.77911 40.9172 8.7718 41.3684 10.1796 41.3684H10.3962C10.7933 41.3684 10.9918 41.567 10.9918 41.9641V42.9929C10.9918 43.3899 10.7933 43.5885 10.3962 43.5885H10.1255C8.10399 43.5885 6.56983 42.9207 5.52299 41.585C4.51224 40.2494 4.00687 38.3543 4.00687 35.8996V28.8064C4.00687 27.3263 3.71809 26.2795 3.14052 25.6658C2.59905 25.0161 1.7688 24.6912 0.649763 24.6912C0.216588 24.6912 0 24.4927 0 24.0956V22.7961C0 22.399 0.216588 22.2004 0.649763 22.2004C1.7688 22.2004 2.59905 21.8936 3.14052 21.2799C3.71809 20.6302 4.00687 19.5653 4.00687 18.0853V10.9379C4.00687 8.48322 4.51224 6.58808 5.52299 5.25246C6.56983 3.91684 8.10399 3.24902 10.1255 3.24902Z" fill="white"/>
<path d="M33.6804 36.2243V37.4697C33.6804 37.8667 33.4818 38.0653 33.0848 38.0653H25.2876C22.9412 38.0653 21.0822 37.3794 19.7105 36.0077C18.3748 34.636 17.707 32.7589 17.707 30.3764V18.1392C17.707 15.7567 18.3748 13.8797 19.7105 12.5079C21.0822 11.1362 22.9412 10.4504 25.2876 10.4504H33.0848C33.4818 10.4504 33.6804 10.6489 33.6804 11.046V12.3455C33.6804 12.7065 33.4818 12.887 33.0848 12.887H25.5042C23.8437 12.887 22.5803 13.3562 21.7139 14.2948C20.8476 15.2333 20.4144 16.5509 20.4144 18.2475V30.2681C20.4144 31.9647 20.8476 33.2823 21.7139 34.2208C22.5803 35.1594 23.8437 35.6287 25.5042 35.6287H33.0848C33.4818 35.6287 33.6804 35.8272 33.6804 36.2243Z" fill="white"/>
<path d="M51.254 38.0653H46.5974C44.251 38.0653 42.392 37.3794 41.0202 36.0077C39.6846 34.636 39.0168 32.7589 39.0168 30.3764V18.1392C39.0168 15.7567 39.6846 13.8797 41.0202 12.5079C42.392 11.1362 44.251 10.4504 46.5974 10.4504H51.254C53.6004 10.4504 55.4594 11.1362 56.8311 12.5079C58.2029 13.8797 58.8887 15.7567 58.8887 18.1392V30.3764C58.8887 32.7589 58.2029 34.636 56.8311 36.0077C55.4594 37.3794 53.6004 38.0653 51.254 38.0653ZM46.814 35.6287H51.0374C52.6979 35.6287 53.9613 35.1774 54.8277 34.275C55.7301 33.3364 56.1814 32.0189 56.1814 30.3223V18.1934C56.1814 16.4968 55.7301 15.1972 54.8277 14.2948C53.9613 13.3562 52.6979 12.887 51.0374 12.887H46.814C45.1535 12.887 43.89 13.3562 43.0237 14.2948C42.1573 15.1972 41.7241 16.4968 41.7241 18.1934V30.3223C41.7241 32.0189 42.1573 33.3364 43.0237 34.275C43.89 35.1774 45.1535 35.6287 46.814 35.6287Z" fill="white"/>
<path d="M76.9789 38.0653H73.351C71.0407 38.0653 69.2178 37.3794 67.8822 36.0077C66.5466 34.636 65.8787 32.7589 65.8787 30.3764V18.1392C65.8787 15.7567 66.5466 13.8797 67.8822 12.5079C69.2178 11.1362 71.0407 10.4504 73.351 10.4504H76.9789C79.7584 10.4504 81.6535 11.3889 82.6643 13.266H82.8809V0.649761C82.8809 0.216587 83.0614 0 83.4223 0H84.9926C85.3897 0 85.5882 0.216587 85.5882 0.649761V37.4155C85.5882 37.8487 85.3897 38.0653 84.9926 38.0653H83.4223C83.0614 38.0653 82.8809 37.8487 82.8809 37.4155V35.2496H82.6643C81.6535 37.1267 79.7584 38.0653 76.9789 38.0653ZM82.8809 30.3223V18.1934C82.8809 16.4968 82.3755 15.1972 81.3648 14.2948C80.3901 13.3562 79.0364 12.887 77.3037 12.887H73.6759C72.0154 12.887 70.752 13.3562 69.8856 14.2948C69.0193 15.2333 68.5861 16.5509 68.5861 18.2475V30.2681C68.5861 31.9647 69.0193 33.2823 69.8856 34.2208C70.752 35.1594 72.0154 35.6287 73.6759 35.6287H77.3037C79.0364 35.6287 80.3901 35.1774 81.3648 34.275C82.3755 33.3364 82.8809 32.0189 82.8809 30.3223Z" fill="white"/>
<path d="M104.21 38.0653H100.744C98.3979 38.0653 96.5389 37.3794 95.1671 36.0077C93.8315 34.636 93.1637 32.7589 93.1637 30.3764V18.1392C93.1637 15.7567 93.8315 13.8797 95.1671 12.5079C96.5389 11.1362 98.3979 10.4504 100.744 10.4504H112.223C112.584 10.4504 112.765 10.6669 112.765 11.1001V37.4155C112.765 37.8487 112.584 38.0653 112.223 38.0653H110.653C110.256 38.0653 110.058 37.8487 110.058 37.4155V35.2496H109.841C108.902 37.1267 107.025 38.0653 104.21 38.0653ZM110.058 30.3223V13.3743C110.058 13.0494 109.877 12.887 109.516 12.887H100.961C99.3004 12.887 98.0369 13.3562 97.1706 14.2948C96.3042 15.2333 95.8711 16.5509 95.8711 18.2475V30.2681C95.8711 31.9647 96.3042 33.2823 97.1706 34.2208C98.0369 35.1594 99.3004 35.6287 100.961 35.6287H104.48C106.213 35.6287 107.567 35.1774 108.541 34.275C109.552 33.3364 110.058 32.0189 110.058 30.3223Z" fill="white"/>
<path d="M136.342 36.2244V37.4697C136.342 37.8668 136.144 38.0654 135.747 38.0654H127.95C125.603 38.0654 123.744 37.3795 122.373 36.0078C121.037 34.6361 120.369 32.759 120.369 30.3765V18.1393C120.369 15.7568 121.037 13.8797 122.373 12.508C123.744 11.1363 125.603 10.4504 127.95 10.4504H135.747C136.144 10.4504 136.342 10.649 136.342 11.0461V12.3456C136.342 12.7066 136.144 12.8871 135.747 12.8871H128.166C126.506 12.8871 125.242 13.3563 124.376 14.2949C123.51 15.2334 123.076 16.551 123.076 18.2476V30.2682C123.076 31.9648 123.51 33.2824 124.376 34.2209C125.242 35.1595 126.506 35.6288 128.166 35.6288H135.747C136.144 35.6288 136.342 35.8273 136.342 36.2244Z" fill="white"/>
<path d="M153.916 38.0654H149.259C146.913 38.0654 145.054 37.3795 143.682 36.0078C142.347 34.6361 141.679 32.759 141.679 30.3765V18.1393C141.679 15.7568 142.347 13.8797 143.682 12.508C145.054 11.1363 146.913 10.4504 149.259 10.4504H153.916C156.262 10.4504 158.122 11.1363 159.493 12.508C160.865 13.8797 161.551 15.7568 161.551 18.1393V30.3765C161.551 32.759 160.865 34.6361 159.493 36.0078C158.122 37.3795 156.262 38.0654 153.916 38.0654ZM149.476 35.6288H153.7C155.36 35.6288 156.623 35.1775 157.49 34.2751C158.392 33.3365 158.843 32.019 158.843 30.3224V18.1934C158.843 16.4968 158.392 15.1973 157.49 14.2949C156.623 13.3563 155.36 12.8871 153.7 12.8871H149.476C147.816 12.8871 146.552 13.3563 145.686 14.2949C144.819 15.1973 144.386 16.4968 144.386 18.1934V30.3224C144.386 32.019 144.819 33.3365 145.686 34.2751C146.552 35.1775 147.816 35.6288 149.476 35.6288Z" fill="white"/>
<path d="M171.194 38.0654H169.624C169.263 38.0654 169.082 37.8488 169.082 37.4156V11.1002C169.082 10.667 169.263 10.4504 169.624 10.4504H171.194C171.591 10.4504 171.79 10.667 171.79 11.1002V13.3744H172.006C172.403 12.6163 173.107 11.9485 174.118 11.3709C175.129 10.7573 176.374 10.4504 177.854 10.4504H179.966C180.363 10.4504 180.561 10.649 180.561 11.0461V12.3456C180.561 12.7427 180.363 12.9232 179.966 12.8871H177.421C175.652 12.8871 174.262 13.4285 173.252 14.5115C172.277 15.5944 171.79 17.0564 171.79 18.8974V37.4156C171.79 37.8488 171.591 38.0654 171.194 38.0654Z" fill="white"/>
<path d="M196.561 38.0654H193.095C190.749 38.0654 188.89 37.3795 187.518 36.0078C186.182 34.6361 185.515 32.759 185.515 30.3765V18.1393C185.515 15.7568 186.182 13.8797 187.518 12.508C188.89 11.1363 190.749 10.4504 193.095 10.4504H204.574C204.935 10.4504 205.116 10.667 205.116 11.1002V37.4156C205.116 37.8488 204.935 38.0654 204.574 38.0654H203.004C202.607 38.0654 202.408 37.8488 202.408 37.4156V35.2497H202.192C201.253 37.1268 199.376 38.0654 196.561 38.0654ZM202.408 30.3224V13.3744C202.408 13.0495 202.228 12.8871 201.867 12.8871H193.312C191.651 12.8871 190.388 13.3563 189.522 14.2949C188.655 15.2334 188.222 16.551 188.222 18.2476V30.2682C188.222 31.9648 188.655 33.2824 189.522 34.2209C190.388 35.1595 191.651 35.6288 193.312 35.6288H196.831C198.564 35.6288 199.918 35.1775 200.892 34.2751C201.903 33.3365 202.408 32.019 202.408 30.3224Z" fill="white"/>
<path d="M221.822 10.9379V18.0853C221.822 19.5653 222.093 20.6302 222.635 21.2799C223.212 21.8936 224.06 22.2004 225.179 22.2004C225.576 22.2004 225.775 22.399 225.775 22.7961V24.0956C225.775 24.4927 225.576 24.6912 225.179 24.6912C224.06 24.6912 223.212 25.0161 222.635 25.6658C222.093 26.2795 221.822 27.3263 221.822 28.8064V35.8996C221.822 38.3543 221.299 40.2494 220.252 41.585C219.241 42.9207 217.725 43.5885 215.704 43.5885H215.433C215 43.5885 214.783 43.3899 214.783 42.9929V41.9641C214.783 41.567 215 41.3684 215.433 41.3684H215.65C217.021 41.3684 217.978 40.9172 218.519 40.0148C219.097 39.1484 219.386 37.8308 219.386 36.062V28.6439C219.386 25.7922 220.36 24.0595 222.31 23.4458C220.36 22.76 219.386 21.0273 219.386 18.2477V10.7754C219.386 9.00664 219.097 7.68907 218.519 6.82272C217.978 5.92027 217.021 5.46904 215.65 5.46904H215.433C215 5.46904 214.783 5.27051 214.783 4.87343V3.84464C214.783 3.44756 215 3.24902 215.433 3.24902H215.704C217.725 3.24902 219.241 3.91684 220.252 5.25246C221.299 6.58808 221.822 8.48322 221.822 10.9379Z" fill="white"/>
</svg>
