<svg width="176" height="50" viewBox="0 0 176 50" fill="none" xmlns="http://www.w3.org/2000/svg">
<path d="M18 5C15.239 5 13 7.239 13 10V11H32.5C36.09 11 39 13.91 39 17.5V27.5C39 29.433 37.433 31 35.5 31H22.5C20.567 31 19 29.433 19 27.5V21H15C13.895 21 13 21.895 13 23V32C13 34.761 15.239 37 18 37H40C42.761 37 45 34.761 45 32V10C45 7.239 42.761 5 40 5H18ZM10 13C7.239 13 5 15.239 5 18V40C5 42.761 7.239 45 10 45H32C34.761 45 37 42.761 37 40V39H17.5C13.91 39 11 36.09 11 32.5V22.5C11 20.567 12.567 19 14.5 19H27.5C29.433 19 31 20.567 31 22.5V29H35C36.105 29 37 28.105 37 27V18C37 15.239 34.761 13 32 13H10Z" fill="white"/>
<path d="M75.2617 14.5117V19.6211C74.5898 18.8945 73.957 18.3672 73.3633 18.0391C72.6992 17.7188 72.0117 17.5586 71.3008 17.5586C69.9648 17.5586 68.875 18.0156 68.0312 18.9297C67.7422 19.2578 67.5078 19.6016 67.3281 19.9609C67.1484 20.3125 67.0117 20.7148 66.918 21.168C66.832 21.6133 66.7891 22.0664 66.7891 22.5273C66.7891 23.9023 67.2109 25.0469 68.0547 25.9609C68.9062 26.8594 69.9883 27.3086 71.3008 27.3086C72.0039 27.3086 72.6914 27.1406 73.3633 26.8047C73.957 26.5 74.5898 25.9766 75.2617 25.2344V30.3555C74.3945 30.7617 73.6562 31.0312 73.0469 31.1641C72.2891 31.3438 71.5469 31.4336 70.8203 31.4336C69.8984 31.4336 69.0312 31.3203 68.2188 31.0938C67.4062 30.875 66.6797 30.5391 66.0391 30.0859C64.7578 29.2109 63.7812 28.1328 63.1094 26.8516C62.4375 25.5234 62.1016 24.0508 62.1016 22.4336C62.1016 21.1367 62.3203 19.9453 62.7578 18.8594C62.9531 18.3359 63.1992 17.8438 63.4961 17.3828C63.8008 16.9141 64.1914 16.4297 64.668 15.9297C65.4883 15.0859 66.4102 14.4609 67.4336 14.0547C68.4492 13.6406 69.5781 13.4336 70.8203 13.4336C71.5312 13.4336 72.2734 13.5195 73.0469 13.6914C73.8125 13.8945 74.5508 14.168 75.2617 14.5117ZM86.0078 25.1172C86.0078 24.2344 85.7852 23.5391 85.3398 23.0312C84.8789 22.5234 84.2773 22.2695 83.5352 22.2695C82.7695 22.2695 82.168 22.5234 81.7305 23.0312C81.2852 23.5234 81.0625 24.2188 81.0625 25.1172C81.0625 25.9922 81.2773 26.6797 81.707 27.1797C82.1758 27.6953 82.7852 27.9531 83.5352 27.9531C84.2852 27.9531 84.8945 27.6953 85.3633 27.1797C85.793 26.6641 86.0078 25.9766 86.0078 25.1172ZM90.1562 25.1172C90.1562 25.9844 89.9883 26.793 89.6523 27.543C89.3008 28.3398 88.8203 29.0273 88.2109 29.6055C87.5234 30.2461 86.8125 30.7109 86.0781 31C85.3125 31.3047 84.4648 31.457 83.5352 31.457C82.5977 31.457 81.75 31.3047 80.9922 31C80.2188 30.6953 79.5039 30.2344 78.8477 29.6172C78.1992 28.9922 77.7305 28.3008 77.4414 27.543C77.1055 26.8164 76.9375 26.0078 76.9375 25.1172C76.9375 24.25 77.1055 23.4336 77.4414 22.668C77.7539 21.8945 78.2266 21.207 78.8594 20.6055C79.4766 20.0117 80.1875 19.5547 80.9922 19.2344C81.7578 18.9375 82.6055 18.7891 83.5352 18.7891C84.457 18.7891 85.3047 18.9375 86.0781 19.2344C86.8828 19.5547 87.5938 20.0117 88.2109 20.6055C88.8594 21.1914 89.3398 21.8789 89.6523 22.668C89.9883 23.4336 90.1562 24.25 90.1562 25.1172ZM101.605 25.0938C101.605 24.1641 101.367 23.4375 100.891 22.9141C100.383 22.3828 99.7109 22.1172 98.875 22.1172C98.0312 22.1172 97.3672 22.3828 96.8828 22.9141C96.3984 23.4453 96.1562 24.1719 96.1562 25.0938C96.1562 26.0234 96.3984 26.7539 96.8828 27.2852C97.3594 27.8086 98.0234 28.0703 98.875 28.0703C99.7188 28.0703 100.391 27.8086 100.891 27.2852C101.367 26.7617 101.605 26.0312 101.605 25.0938ZM105.309 12.8359V31H101.465V29.0781C100.934 29.8828 100.332 30.4766 99.6602 30.8594C99.0352 31.2578 98.3008 31.457 97.457 31.457C95.8008 31.457 94.4766 30.8789 93.4844 29.7227C92.5 28.5664 92.0078 27.0234 92.0078 25.0938C92.0078 23.2188 92.5039 21.6914 93.4961 20.5117C94.4805 19.3633 95.7539 18.7891 97.3164 18.7891C98.3164 18.7891 99.1289 18.9727 99.7539 19.3398C100.355 19.6758 100.918 20.2734 101.441 21.1328C101.41 20.9219 101.379 20.6016 101.348 20.1719C101.316 19.7031 101.301 19.3203 101.301 19.0234V12.8359H105.309ZM117.426 25.0703C117.426 24.1328 117.18 23.4062 116.688 22.8906C116.188 22.3438 115.516 22.0703 114.672 22.0703C113.828 22.0703 113.164 22.3359 112.68 22.8672C112.18 23.4141 111.93 24.1484 111.93 25.0703C111.93 26 112.18 26.7305 112.68 27.2617C113.156 27.7852 113.82 28.0469 114.672 28.0469C115.516 28.0469 116.184 27.7852 116.676 27.2617C117.176 26.7383 117.426 26.0078 117.426 25.0703ZM121.094 19.1641V31H117.262V29.0781C116.707 29.8984 116.086 30.5 115.398 30.8828C114.719 31.2656 113.922 31.457 113.008 31.457C111.422 31.457 110.16 30.8789 109.223 29.7227C108.762 29.1523 108.41 28.4805 108.168 27.707C107.926 26.9336 107.805 26.0625 107.805 25.0938C107.805 23.1562 108.301 21.6211 109.293 20.4883C110.285 19.3555 111.613 18.7891 113.277 18.7891C114.168 18.7891 114.934 18.9805 115.574 19.3633C116.223 19.7305 116.777 20.3125 117.238 21.1094V19.1641H121.094ZM132.742 23.0547C132.336 22.6953 131.945 22.4336 131.57 22.2695C131.234 22.1055 130.84 22.0234 130.387 22.0234C129.551 22.0234 128.895 22.2969 128.418 22.8438C127.926 23.3828 127.68 24.125 127.68 25.0703C127.68 25.9766 127.934 26.6953 128.441 27.2266C128.934 27.7734 129.617 28.0469 130.492 28.0469C130.906 28.0469 131.305 27.9609 131.688 27.7891C132.094 27.5938 132.445 27.3359 132.742 27.0156V30.6367C132.242 30.9023 131.738 31.1133 131.23 31.2695C130.691 31.3945 130.18 31.457 129.695 31.457C127.867 31.457 126.395 30.8711 125.277 29.6992C124.895 29.3086 124.578 28.8789 124.328 28.4102C124.086 27.9414 123.898 27.4336 123.766 26.8867C123.641 26.3398 123.578 25.7422 123.578 25.0938C123.578 23.2266 124.148 21.7109 125.289 20.5469C126.438 19.375 127.922 18.7891 129.742 18.7891C130.312 18.7891 130.855 18.8516 131.371 18.9766C131.871 19.1016 132.328 19.2852 132.742 19.5273V23.0547ZM143.711 25.1172C143.711 24.2344 143.488 23.5391 143.043 23.0312C142.582 22.5234 141.98 22.2695 141.238 22.2695C140.473 22.2695 139.871 22.5234 139.434 23.0312C138.988 23.5234 138.766 24.2188 138.766 25.1172C138.766 25.9922 138.98 26.6797 139.41 27.1797C139.879 27.6953 140.488 27.9531 141.238 27.9531C141.988 27.9531 142.598 27.6953 143.066 27.1797C143.496 26.6641 143.711 25.9766 143.711 25.1172ZM147.859 25.1172C147.859 25.9844 147.691 26.793 147.355 27.543C147.004 28.3398 146.523 29.0273 145.914 29.6055C145.227 30.2461 144.516 30.7109 143.781 31C143.016 31.3047 142.168 31.457 141.238 31.457C140.301 31.457 139.453 31.3047 138.695 31C137.922 30.6953 137.207 30.2344 136.551 29.6172C135.902 28.9922 135.434 28.3008 135.145 27.543C134.809 26.8164 134.641 26.0078 134.641 25.1172C134.641 24.25 134.809 23.4336 135.145 22.668C135.457 21.8945 135.93 21.207 136.562 20.6055C137.18 20.0117 137.891 19.5547 138.695 19.2344C139.461 18.9375 140.309 18.7891 141.238 18.7891C142.16 18.7891 143.008 18.9375 143.781 19.2344C144.586 19.5547 145.297 20.0117 145.914 20.6055C146.562 21.1914 147.043 21.8789 147.355 22.668C147.691 23.4336 147.859 24.25 147.859 25.1172ZM150.285 31V19.1641H154.223V21.9531C154.637 20.9297 155.188 20.168 155.875 19.668C156.586 19.1602 157.441 18.9062 158.441 18.9062C158.668 18.9062 158.836 18.9141 158.945 18.9297C159.031 18.9375 159.109 18.9453 159.18 18.9531C159.25 18.9531 159.34 18.9609 159.449 18.9766L159.051 22.7734C158.762 22.6797 158.512 22.6133 158.301 22.5742C157.988 22.543 157.758 22.5273 157.609 22.5273C156.594 22.5273 155.809 22.8398 155.254 23.4648C154.707 24.082 154.434 24.9609 154.434 26.1016V31H150.285ZM170.02 25.0703C170.02 24.1328 169.773 23.4062 169.281 22.8906C168.781 22.3438 168.109 22.0703 167.266 22.0703C166.422 22.0703 165.758 22.3359 165.273 22.8672C164.773 23.4141 164.523 24.1484 164.523 25.0703C164.523 26 164.773 26.7305 165.273 27.2617C165.75 27.7852 166.414 28.0469 167.266 28.0469C168.109 28.0469 168.777 27.7852 169.27 27.2617C169.77 26.7383 170.02 26.0078 170.02 25.0703ZM173.688 19.1641V31H169.855V29.0781C169.301 29.8984 168.68 30.5 167.992 30.8828C167.312 31.2656 166.516 31.457 165.602 31.457C164.016 31.457 162.754 30.8789 161.816 29.7227C161.355 29.1523 161.004 28.4805 160.762 27.707C160.52 26.9336 160.398 26.0625 160.398 25.0938C160.398 23.1562 160.895 21.6211 161.887 20.4883C162.879 19.3555 164.207 18.7891 165.871 18.7891C166.762 18.7891 167.527 18.9805 168.168 19.3633C168.816 19.7305 169.371 20.3125 169.832 21.1094V19.1641H173.688Z" fill="white"/>
</svg>
