<svg width="185" height="50" viewBox="0 0 185 50" fill="none" xmlns="http://www.w3.org/2000/svg">
<path d="M18 5C15.239 5 13 7.239 13 10V11H32.5C36.09 11 39 13.91 39 17.5V27.5C39 29.433 37.433 31 35.5 31H22.5C20.567 31 19 29.433 19 27.5V21H15C13.895 21 13 21.895 13 23V32C13 34.761 15.239 37 18 37H40C42.761 37 45 34.761 45 32V10C45 7.239 42.761 5 40 5H18ZM10 13C7.239 13 5 15.239 5 18V40C5 42.761 7.239 45 10 45H32C34.761 45 37 42.761 37 40V39H17.5C13.91 39 11 36.09 11 32.5V22.5C11 20.567 12.567 19 14.5 19H27.5C29.433 19 31 20.567 31 22.5V29H35C36.105 29 37 28.105 37 27V18C37 15.239 34.761 13 32 13H10Z" fill="#4745EC"/>
<path d="M75.928 21.952C74.84 20.624 73.496 19.96 71.896 19.96C71.192 19.96 70.536 20.088 69.928 20.344C69.336 20.6 68.824 20.952 68.392 21.4C67.96 21.832 67.616 22.352 67.36 22.96C67.12 23.568 67 24.224 67 24.928C67 25.648 67.12 26.312 67.36 26.92C67.616 27.528 67.96 28.056 68.392 28.504C68.84 28.952 69.36 29.304 69.952 29.56C70.544 29.816 71.184 29.944 71.872 29.944C73.376 29.944 74.728 29.304 75.928 28.024V33.592L75.448 33.76C74.728 34.016 74.056 34.2 73.432 34.312C72.808 34.44 72.192 34.504 71.584 34.504C70.336 34.504 69.136 34.272 67.984 33.808C66.848 33.328 65.84 32.664 64.96 31.816C64.096 30.952 63.4 29.936 62.872 28.768C62.344 27.584 62.08 26.296 62.08 24.904C62.08 23.512 62.336 22.24 62.848 21.088C63.376 19.92 64.072 18.92 64.936 18.088C65.816 17.24 66.832 16.584 67.984 16.12C69.136 15.64 70.344 15.4 71.608 15.4C72.328 15.4 73.032 15.48 73.72 15.64C74.424 15.784 75.16 16.016 75.928 16.336V21.952ZM99.3325 27.808C99.3325 28.208 99.4045 28.584 99.5485 28.936C99.6925 29.272 99.8845 29.568 100.125 29.824C100.381 30.08 100.677 30.28 101.013 30.424C101.365 30.568 101.741 30.64 102.141 30.64C102.525 30.64 102.885 30.568 103.221 30.424C103.573 30.28 103.869 30.08 104.109 29.824C104.365 29.568 104.565 29.272 104.709 28.936C104.869 28.6 104.949 28.24 104.949 27.856C104.949 27.472 104.869 27.112 104.709 26.776C104.565 26.424 104.365 26.12 104.109 25.864C103.869 25.608 103.573 25.408 103.221 25.264C102.885 25.12 102.525 25.048 102.141 25.048C101.757 25.048 101.389 25.12 101.037 25.264C100.701 25.408 100.405 25.608 100.148 25.864C99.9085 26.12 99.7085 26.416 99.5485 26.752C99.4045 27.072 99.3325 27.424 99.3325 27.808ZM104.805 14.08H109.173V34H104.805V32.632C103.877 33.8 102.621 34.384 101.037 34.384C100.141 34.384 99.3165 34.216 98.5645 33.88C97.8125 33.544 97.1565 33.08 96.5965 32.488C96.0365 31.896 95.5965 31.2 95.2765 30.4C94.9725 29.6 94.8205 28.736 94.8205 27.808C94.8205 26.928 94.9645 26.096 95.2525 25.312C95.5565 24.512 95.9805 23.816 96.5245 23.224C97.0685 22.632 97.7165 22.168 98.4685 21.832C99.2365 21.48 100.077 21.304 100.989 21.304C102.525 21.304 103.797 21.84 104.805 22.912V14.08ZM116.161 27.808C116.161 28.208 116.233 28.584 116.377 28.936C116.521 29.272 116.713 29.568 116.953 29.824C117.209 30.08 117.505 30.28 117.841 30.424C118.193 30.568 118.569 30.64 118.969 30.64C119.353 30.64 119.713 30.568 120.049 30.424C120.401 30.28 120.697 30.08 120.937 29.824C121.193 29.568 121.393 29.272 121.537 28.936C121.697 28.6 121.777 28.24 121.777 27.856C121.777 27.472 121.697 27.112 121.537 26.776C121.393 26.424 121.193 26.12 120.937 25.864C120.697 25.608 120.401 25.408 120.049 25.264C119.713 25.12 119.353 25.048 118.969 25.048C118.569 25.048 118.193 25.12 117.841 25.264C117.505 25.408 117.209 25.608 116.953 25.864C116.713 26.12 116.521 26.416 116.377 26.752C116.233 27.072 116.161 27.424 116.161 27.808ZM121.633 21.688H126.001V34H121.633V32.632C120.705 33.8 119.449 34.384 117.865 34.384C116.969 34.384 116.145 34.224 115.393 33.904C114.641 33.568 113.985 33.104 113.425 32.512C112.865 31.92 112.425 31.224 112.105 30.424C111.801 29.624 111.649 28.752 111.649 27.808C111.649 26.928 111.801 26.096 112.105 25.312C112.409 24.512 112.833 23.816 113.377 23.224C113.921 22.632 114.569 22.168 115.321 21.832C116.073 21.48 116.905 21.304 117.817 21.304C119.353 21.304 120.625 21.84 121.633 22.912V21.688ZM138.245 25.672C137.493 25.16 136.733 24.904 135.965 24.904C135.549 24.904 135.157 24.976 134.789 25.12C134.437 25.264 134.125 25.472 133.853 25.744C133.581 26 133.365 26.312 133.205 26.68C133.061 27.032 132.989 27.432 132.989 27.88C132.989 28.312 133.061 28.712 133.205 29.08C133.365 29.432 133.573 29.744 133.829 30.016C134.101 30.272 134.421 30.472 134.789 30.616C135.157 30.76 135.549 30.832 135.965 30.832C136.781 30.832 137.541 30.552 138.245 29.992V33.688C137.173 34.152 136.157 34.384 135.197 34.384C134.301 34.384 133.445 34.232 132.629 33.928C131.829 33.624 131.117 33.192 130.493 32.632C129.885 32.056 129.397 31.376 129.029 30.592C128.661 29.792 128.477 28.904 128.477 27.928C128.477 26.952 128.653 26.064 129.005 25.264C129.357 24.448 129.837 23.752 130.445 23.176C131.053 22.584 131.773 22.128 132.605 21.808C133.453 21.472 134.357 21.304 135.317 21.304C136.373 21.304 137.349 21.528 138.245 21.976V25.672ZM157.527 21.688H161.871V23.704C162.335 22.968 162.903 22.408 163.575 22.024C164.247 21.624 165.031 21.424 165.927 21.424C166.039 21.424 166.159 21.424 166.287 21.424C166.431 21.424 166.591 21.44 166.767 21.472V25.624C166.191 25.336 165.567 25.192 164.895 25.192C163.887 25.192 163.127 25.496 162.615 26.104C162.119 26.696 161.871 27.568 161.871 28.72V34H157.527V21.688ZM172.879 27.808C172.879 28.208 172.951 28.584 173.095 28.936C173.239 29.272 173.431 29.568 173.671 29.824C173.927 30.08 174.223 30.28 174.559 30.424C174.911 30.568 175.287 30.64 175.687 30.64C176.071 30.64 176.431 30.568 176.767 30.424C177.119 30.28 177.415 30.08 177.655 29.824C177.911 29.568 178.111 29.272 178.255 28.936C178.415 28.6 178.495 28.24 178.495 27.856C178.495 27.472 178.415 27.112 178.255 26.776C178.111 26.424 177.911 26.12 177.655 25.864C177.415 25.608 177.119 25.408 176.767 25.264C176.431 25.12 176.071 25.048 175.687 25.048C175.287 25.048 174.911 25.12 174.559 25.264C174.223 25.408 173.927 25.608 173.671 25.864C173.431 26.12 173.239 26.416 173.095 26.752C172.951 27.072 172.879 27.424 172.879 27.808ZM178.351 21.688H182.719V34H178.351V32.632C177.423 33.8 176.167 34.384 174.583 34.384C173.687 34.384 172.863 34.224 172.111 33.904C171.359 33.568 170.703 33.104 170.143 32.512C169.583 31.92 169.143 31.224 168.823 30.424C168.519 29.624 168.367 28.752 168.367 27.808C168.367 26.928 168.519 26.096 168.823 25.312C169.127 24.512 169.551 23.816 170.095 23.224C170.639 22.632 171.287 22.168 172.039 21.832C172.791 21.48 173.623 21.304 174.535 21.304C176.071 21.304 177.343 21.84 178.351 22.912V21.688Z" fill="black"/>
<path d="M82.5998 27.784C82.5998 28.2 82.6718 28.584 82.8158 28.936C82.9758 29.272 83.1758 29.568 83.4158 29.824C83.6718 30.08 83.9678 30.28 84.3038 30.424C84.6558 30.568 85.0238 30.64 85.4078 30.64C85.7918 30.64 86.1518 30.568 86.4878 30.424C86.8398 30.28 87.1358 30.08 87.3758 29.824C87.6318 29.568 87.8318 29.272 87.9758 28.936C88.1358 28.584 88.2158 28.208 88.2158 27.808C88.2158 27.424 88.1358 27.064 87.9758 26.728C87.8318 26.376 87.6318 26.072 87.3758 25.816C87.1358 25.56 86.8398 25.36 86.4878 25.216C86.1518 25.072 85.7918 25 85.4078 25C85.0238 25 84.6558 25.072 84.3038 25.216C83.9678 25.36 83.6718 25.56 83.4158 25.816C83.1758 26.072 82.9758 26.368 82.8158 26.704C82.6718 27.04 82.5998 27.4 82.5998 27.784ZM78.0158 27.736C78.0158 26.824 78.1998 25.976 78.5678 25.192C78.9358 24.392 79.4478 23.704 80.1038 23.128C80.7598 22.536 81.5358 22.072 82.4318 21.736C83.3438 21.4 84.3358 21.232 85.4078 21.232C86.4638 21.232 87.4398 21.4 88.3358 21.736C89.2478 22.056 90.0318 22.512 90.6878 23.104C91.3598 23.68 91.8798 24.376 92.2478 25.192C92.6158 25.992 92.7998 26.88 92.7998 27.856C92.7998 28.832 92.6078 29.728 92.2238 30.544C91.8558 31.344 91.3438 32.04 90.6878 32.632C90.0318 33.208 89.2398 33.656 88.3118 33.976C87.3998 34.296 86.4078 34.456 85.3358 34.456C84.2798 34.456 83.3038 34.296 82.4078 33.976C81.5118 33.656 80.7358 33.2 80.0798 32.608C79.4398 32.016 78.9358 31.312 78.5678 30.496C78.1998 29.664 78.0158 28.744 78.0158 27.736ZM144.826 27.784C144.826 28.2 144.898 28.584 145.042 28.936C145.202 29.272 145.402 29.568 145.642 29.824C145.898 30.08 146.194 30.28 146.53 30.424C146.882 30.568 147.25 30.64 147.634 30.64C148.018 30.64 148.378 30.568 148.714 30.424C149.066 30.28 149.362 30.08 149.602 29.824C149.858 29.568 150.058 29.272 150.202 28.936C150.362 28.584 150.442 28.208 150.442 27.808C150.442 27.424 150.362 27.064 150.202 26.728C150.058 26.376 149.858 26.072 149.602 25.816C149.362 25.56 149.066 25.36 148.714 25.216C148.378 25.072 148.018 25 147.634 25C147.25 25 146.882 25.072 146.53 25.216C146.194 25.36 145.898 25.56 145.642 25.816C145.402 26.072 145.202 26.368 145.042 26.704C144.898 27.04 144.826 27.4 144.826 27.784ZM140.242 27.736C140.242 26.824 140.426 25.976 140.794 25.192C141.162 24.392 141.674 23.704 142.33 23.128C142.986 22.536 143.762 22.072 144.658 21.736C145.57 21.4 146.562 21.232 147.634 21.232C148.69 21.232 149.666 21.4 150.562 21.736C151.474 22.056 152.258 22.512 152.914 23.104C153.586 23.68 154.106 24.376 154.474 25.192C154.842 25.992 155.026 26.88 155.026 27.856C155.026 28.832 154.834 29.728 154.45 30.544C154.082 31.344 153.57 32.04 152.914 32.632C152.258 33.208 151.466 33.656 150.538 33.976C149.626 34.296 148.634 34.456 147.562 34.456C146.506 34.456 145.53 34.296 144.634 33.976C143.738 33.656 142.962 33.2 142.306 32.608C141.666 32.016 141.162 31.312 140.794 30.496C140.426 29.664 140.242 28.744 140.242 27.736Z" fill="#6D37FF"/>
</svg>
