<svg width="615" height="188" viewBox="0 0 615 188" fill="none" xmlns="http://www.w3.org/2000/svg">
<path d="M238.824 164.383C228.216 164.383 219.085 162.234 211.432 157.938C203.823 153.596 197.959 147.464 193.842 139.542C189.724 131.575 187.665 122.153 187.665 111.277C187.665 100.669 189.724 91.3597 193.842 83.348C197.959 75.3362 203.756 69.0925 211.23 64.6166C218.75 60.1408 227.567 57.9029 237.682 57.9029C244.486 57.9029 250.819 58.9995 256.682 61.1926C262.59 63.341 267.738 66.586 272.124 70.9276C276.555 75.2691 280.001 80.7296 282.463 87.3091C284.925 93.8438 286.156 101.497 286.156 110.27V118.125H199.078V100.401H259.233C259.233 96.2831 258.338 92.6353 256.548 89.4575C254.758 86.2796 252.274 83.7955 249.096 82.0052C245.963 80.1701 242.315 79.2526 238.152 79.2526C233.811 79.2526 229.962 80.2596 226.605 82.2738C223.293 84.2431 220.697 86.9062 218.817 90.2631C216.937 93.5752 215.975 97.2678 215.93 101.341V118.192C215.93 123.295 216.87 127.703 218.75 131.418C220.674 135.133 223.382 137.998 226.873 140.012C230.364 142.026 234.505 143.033 239.294 143.033C242.471 143.033 245.381 142.585 248.022 141.69C250.662 140.795 252.923 139.452 254.802 137.662C256.682 135.872 258.114 133.679 259.099 131.083L285.551 132.828C284.209 139.184 281.456 144.734 277.293 149.478C273.176 154.178 267.849 157.848 261.315 160.489C254.825 163.085 247.328 164.383 238.824 164.383Z" fill="#434A59"/>
<path d="M327.748 24.8713V162.369H299.148V28.8939L327.748 24.8713Z" fill="#434A59"/>
<path d="M370.902 132.694L370.969 98.3867H375.132L408.164 59.2457H440.994L396.616 111.076H389.835L370.902 132.694ZM344.987 162.369V28.8939L373.588 24.8713V162.369H344.987ZM409.439 162.369L379.093 117.454L398.16 97.2454L442.941 162.369H409.439Z" fill="#434A59"/>
<path d="M492.103 164.383C481.496 164.383 472.365 162.234 464.711 157.938C457.102 153.596 451.239 147.464 447.121 139.542C443.004 131.575 440.945 122.153 440.945 111.277C440.945 100.669 443.004 91.3597 447.121 83.348C451.239 75.3362 457.035 69.0925 464.51 64.6166C472.029 60.1408 480.847 57.9029 490.962 57.9029C497.765 57.9029 504.099 58.9995 509.962 61.1926C515.87 63.341 521.017 66.586 525.403 70.9276C529.835 75.2691 533.281 80.7296 535.743 87.3091C538.204 93.8438 539.435 101.497 539.435 110.27V118.125H452.358V100.401H512.513C512.513 96.2831 511.618 92.6353 509.828 89.4575C508.037 86.2796 505.553 83.7955 502.375 82.0052C499.242 80.1701 495.594 79.2526 491.432 79.2526C487.09 79.2526 483.241 80.2596 479.884 82.2738C476.572 84.2431 473.976 86.9062 472.096 90.2631C470.217 93.5752 469.254 97.2678 469.21 101.341V118.192C469.21 123.295 470.149 127.703 472.029 131.418C473.954 135.133 476.662 137.998 480.153 140.012C483.644 142.026 487.784 143.033 492.573 143.033C495.751 143.033 498.66 142.585 501.301 141.69C503.942 140.795 506.202 139.452 508.082 137.662C509.962 135.872 511.394 133.679 512.379 131.083L538.831 132.828C537.488 139.184 534.736 144.734 530.573 149.478C526.455 154.178 521.129 157.848 514.594 160.489C508.104 163.085 500.607 164.383 492.103 164.383Z" fill="#434A59"/>
<path d="M552.428 162.369V59.2457H578.144L580.155 77.2385H581.229C583.109 70.838 586.265 66.0042 590.696 62.7368C595.127 59.4247 600.229 57.7686 606.003 57.7686C607.435 57.7686 608.98 57.8582 610.636 58.0372C612.292 58.2162 613.746 58.4624 615 58.7757V84.1536C613.657 83.7508 611.799 83.3927 609.427 83.0794C607.055 82.7661 604.884 82.6095 602.915 82.6095C598.708 82.6095 594.948 83.527 591.636 85.3621C588.368 87.1524 585.772 89.6589 583.848 92.8815C581.968 96.1041 581.028 99.819 581.028 104.026V162.369H552.428Z" fill="#434A59"/>
<path d="M0 142.5C0 157.785 12.8908 164.683 28.6463 168.064L98.3538 186.14C98.4497 186.165 98.5432 186.092 98.5432 185.993V133.168L0 124.446V142.5Z" fill="#C0C7FA"/>
<path d="M0 67.9106C0 49.786 12.8908 38.289 28.6463 34.6371L163.812 1.00455C163.908 0.980765 164 1.0533 164 1.15207V62.2977C164 62.376 163.941 62.4415 163.863 62.449L0 78.3285V67.9106Z" fill="#5A6DED"/>
<path d="M0 119.414L98.5433 127.124L131.038 129.412C131.126 129.418 131.2 129.348 131.2 129.26V71.9385L0 83.3002V119.414Z" fill="#8293F8"/>
</svg>
