<svg xmlns="http://www.w3.org/2000/svg" xmlns:xlink="http://www.w3.org/1999/xlink" viewBox="0 0 342.781 323"><defs><path id="A" d="M-392.5-634.04H741.26V925H-392.5z"/></defs><clipPath id="B"><use xlink:href="#A"/></clipPath><g clip-path="url(#B)"><path d="M.96 133.07l.008-4.036c.153-3.927.797-7.744 2.483-11.35a11.93 11.93 0 0 1 4.627-5.194c2.802-1.74 5.65-3.395 8.793-4.47.826-.282 1.646-.604 2.423-.998 3.25-1.65 6.687-2.826 10.095-4.072 1.07-.392 2.173-.713 3.282-.98 1.526-.368 2.94-.978 4.23-1.847l7.304-5.042c1.856-1.334 3.646-2.762 5.45-4.17.795-.62 1.6-1.25 2.314-1.948l7.057-6.927c1.667-1.677 3.036-3.596 4.255-5.62l8.93-14.876c3.3-5.6 7.33-10.6 11.964-15.157 1.052-1.033 2.05-2.14 2.948-3.308 2.622-3.416 5.023-6.987 7.377-10.595.95-1.456 2.08-2.807 3.232-4.114 1.032-1.172 2.423-1.7 3.994-1.53.656.07 1.348.22 1.922.526.7.372 1.437.835 1.903 1.45 1.74 2.3 3.67 4.5 4.845 7.165.967 2.2 2.54 3.596 4.907 4.068l2.77.524c2.124.453 3.964-.162 5.695-1.38 1.944-1.368 3.62-2.997 5.085-4.86 2.677-3.4 4.266-7.3 5.05-11.528.4-2.113.852-4.225.758-6.398-.05-1.15.4-2.117 1.2-2.902 1.5-1.48 3.087-2.8 5.225-3.275a6.98 6.98 0 0 0 1.346-.419c1.08-.48 2.2-.54 3.362-.508.874.025 1.75.007 2.622.057 1.862.108 3.593-.34 5.275-1.104 1.653-.75 3.362-1.38 4.992-2.176 2.726-1.328 5.582-1.333 8.5-1.018.868.094 1.734.282 2.602.3 2.102.016 4.155.307 6.174.87 1.962.548 3.975.667 5.996.688l9.687.065c2.874.023 4.455 1.58 4.57 4.455.043 1.093-.094 2.146-.503 3.162-1.007 2.5-2.1 4.947-3.655 7.172-1.58 2.26-3.138 4.538-4.62 6.863-1.778 2.8-3.228 5.745-3.95 9.007-.38 1.713-.582 3.44-.576 5.2.008 2.148.8 3.794 2.8 4.722l4.227 1.894c1.402.644 2.873 1.187 4.17 2.002 3.612 2.268 7.566 3.392 11.74 4.008 4.055.6 8.097 1.313 12.12 2.1 3.264.638 6.55.8 9.84.612 2.35-.134 4.387-1.192 6.076-2.866 1.307-1.295 2.308-2.8 3.07-4.465 1.987-4.337 3.1-8.878 3.116-13.663.008-1.547.043-3.096-.006-4.642-.122-3.853.35-7.654.936-11.445.435-2.814 1.476-5.448 2.6-8.044a120.85 120.85 0 0 1 2.881-6.224c.597-1.198 1.317-2.343 2.062-3.458.602-.902 1.426-1.612 2.394-2.125 1.37-.725 2.765-.528 3.893.5 1.776 1.606 3.103 3.455 3.886 5.777.944 2.798 2.15 5.5 3.275 8.245.667 1.624 1.125 3.3 1.515 5 1.62 7.096 4.272 13.745 8.9 19.46 2.85 3.527 5.06 7.443 7.326 11.338l5.466 9.2c.557.914 1.294 1.716 1.92 2.6 1.017 1.42 2.092 2.805 3 4.292 2.348 3.847 4.608 7.75 6.5 11.85 2.517 5.486 6.396 9.926 10.67 14.06 1.054 1.02 2.296 1.87 3.538 2.664 2.587 1.65 4.8 3.667 6.6 6.164 3.678 5.16 7.884 9.88 12.127 14.57 1.263 1.396 2.444 2.866 3.634 4.326 2.44 2.993 4.334 6.314 5.882 9.842a66.87 66.87 0 0 0 1.37 2.921c1.366 2.746 2.127 5.646 2.347 8.706.223 3.1.374 6.173.057 9.267-.262 2.553-.8 5.043-1.508 7.504l-1.93 6.8c-.626 2.276-.985 4.6-1.158 6.954-.518 7.048-1.55 14.032-2.528 21.027-.385 2.757-1.152 5.378-1.933 8.018-1.412 4.77-2.834 9.535-4.596 14.196-1.142 3.02-1.96 6.144-2.578 9.32-.36 1.847-.84 3.67-1.275 5.502-.1.457-.215.922-.4 1.356-1.384 3.427-2.7 6.88-4.216 10.254-.623 1.393-1.638 2.613-2.5 3.9-.816 1.233-1.7 2.423-2.47 3.683-1.105 1.8-2.483 3.336-4.23 4.54-1.162.802-2.3 1.653-3.447 2.464-1.574 1.104-3.294 1.867-5.243 1.865-3.34-.004-6.5 1.054-9.723 1.64-1.984.36-3.962.754-5.995.766-.665.004-1.33.18-1.994.28-2.153.324-3.853-.437-5.017-2.248-.65-1-1.165-2.112-1.686-3.198-.435-.908-.784-1.858-1.183-2.784-.3-.672-.796-1.037-1.537-1.136-1.282-.172-2.4.01-3.233 1.137-.6.8-1.3 1.54-1.896 2.352-2.224 3.032-5.22 4.58-8.958 4.636-1.406.02-2.814-.178-4.223-.2-1.612-.036-3.227-.05-4.837.027-1.356.065-2.67.037-4-.358-.76-.227-1.6-.27-2.4-.304-1.932-.084-3.7-.626-5.314-1.696-2.524-1.683-5.23-3.037-7.9-4.478-2.42-1.312-4.768-2.772-7.074-4.28-1.173-.768-2.165-1.808-3.272-2.683-1.2-.957-2.457-1.87-3.696-2.793-.323-.24-.683-.43-1.015-.66-1.845-1.277-2.746-3.015-2.827-5.284-.13-3.62.753-7.064 1.608-10.524.257-1.04.522-2.1.624-3.153.116-1.2-.27-1.6-1.458-1.7-1.546-.103-3.095-.122-4.584.442-1.194.452-2.426.82-3.583 1.348-4.096 1.873-8.4 2.332-12.82 1.9-4.063-.4-4.417-.632-7.5-3.36-1.76-1.56-3.584-3.05-5.42-4.518a18.68 18.68 0 0 0-5.836-3.138 26.23 26.23 0 0 1-5.306-2.432c-1.576-.947-3.263-1.56-5.084-1.85-4.2-.667-8.208-2.077-12.284-3.218-4.493-1.257-9.048-2.02-13.73-1.972-1.292.013-2.543.175-3.78.52-6.57 1.833-12.824 4.415-18.808 7.705-4.423 2.432-8.774 4.974-13.043 7.663-.17.107-.366.183-.52.3-3.024 2.5-6.6 4.1-9.917 6.163-.628.4-1.274.757-1.878 1.182l-10.205 7.237c-2.24 1.644-4.6 3.023-7.178 4.053-1.873.748-3.728 1.543-5.564 2.376-3.074 1.394-6.308 2.316-9.523 3.294-.574.175-1.2.2-1.78.337l-3.7.908c-.584.153-1.137.462-1.727.548-2.36.346-4.478 1.404-6.68 2.212-.757.278-1.486.656-2.263.85-.84.2-1.715.296-2.58.362-.93.072-1.707-.328-2.33-1a87.39 87.39 0 0 1-2.152-2.403c-1.117-1.3-1.84-2.777-2.187-4.476-.7-3.37-1.234-6.755-1.175-10.2.058-3.385-.8-6.53-2.334-9.5a69.84 69.84 0 0 0-2.93-5.06 41.5 41.5 0 0 1-3.17-6.072c-.86-2.045-1.72-4.093-2.68-6.093-1.373-2.868-2.28-5.874-3.02-8.956l-3.67-14.674c-.57-2.222-1.42-4.344-2.515-6.364l-1.132-2.14c-1.82-3.254-3-6.748-3.95-10.336l-2.012-7.185C3.763 151.83 2.4 146.4 1.472 140.9c-.438-2.572-.454-5.216-.66-7.828l.15-.01zm131.23 60.18l.268-.072-.305.027c-.254-.42-.597-.63-1.098-.466-.482-.675-1.112-.953-2.15-.832.752.693 1.453.794 2.195.785l1.1.558zM245.14 15.7c-.574.17-.597.574-.447 1.052-.487.406-.487.406-.506 1.326.42-.477.426-.93.45-1.38l.533-1.016c-.033-.042-.078-.08-.095-.128-.01-.034.017-.08.027-.122l.04.268zM42.44 249.266c.9-.184 1.76-.4 2.685-1.267-1.257.145-2.26.1-2.65 1.298-.62-.1-1.238-.217-2.018-.002 1.04.245 1.04.248 1.983-.03zm26.43-9.55c1.123-.5 2.576-.313 3.47-1.792-1.137.457-2.072.808-2.98 1.217-.207.093-.324.384-.504.568-.54-.188-1.07-.276-1.564.125-2.006.242-2.704.5-3.915 1.512 1.398-.298 2.58-.7 3.723-1.216.084-.038.102-.22.156-.332l1.616-.082zM96.572 33.77c-1.047.648-1.34 1.05-1.962 2.76.675-.177 1.052-.603 1.295-1.137.246-.54.42-1.1.613-1.68v-.302l.054.36zm-1.907 189.845l1.437-1.02 2.656-1.765c.195-.138.324-.428-.1-.8-1.422.842-2.798 1.842-4.038 3.027-.082.078.045.376.06.558-.1-.065-.192-.16-.3-.185-.056-.013-.14.093-.213.145.06-.003.12-.014.178-.008.1.01.22.032.33.048zm82.795-31.712c.553-.065.963-.03 1.3-.17.93-.383 1.87-.774 2.74-1.277 5.128-2.963 10.2-6.023 14.557-10.1 1.328-1.236 2.777-2.34 4.13-3.552 3.905-3.497 8.367-6.35 11.9-10.288.173-.193.415-.4.653-.442.305-.055.713-.053.94.113s.428.592.376.85c-.088.437-.302.9-.608 1.23-.974 1.02-1.964 2.035-3.04 2.944l-14.845 12.442c-3.5 2.933-7.044 5.84-10.27 9.1-.706.712-1.364 1.483-1.966 2.285-.382.508-.1 1.022.502 1.254 1.03.4 1.982.122 2.927-.286 2.412-1.042 4.73-2.264 6.942-3.683 8.3-5.318 15.976-11.407 23.122-18.18.3-.276.568-.607.917-.767.26-.118.672-.092.934.037.392.192.524.62.37 1.04a2.86 2.86 0 0 1-.501.863c-.655.765-1.28 1.572-2.028 2.24-4.872 4.353-9.374 9.076-13.862 13.812-1.34 1.414-2.6 2.915-3.818 4.43-1.1 1.367-1.9 2.927-2.5 4.586-.27.764.077 1.373.873 1.472.52.065 1.073.022 1.593-.07 1.68-.298 3.2-1.017 4.632-1.912l9.786-6.038c1.312-.817 2.624-1.642 3.87-2.553 9.237-6.75 18.177-13.883 26.812-21.38 5.28-4.583 10.377-9.375 15.063-14.594 2.512-2.798 5.242-5.407 7.954-8.017l14.915-14.18c1.3-1.254 2.516-2.617 3.74-3.96l8.417-9.25c3.927-4.07 7.72-8.25 11.2-12.715l5.76-7.53c.108-.142.128-.352.23-.647-.664-.46-1.334-.897-1.974-1.375-1.13-.843-2.34-1.6-3.35-2.583-4.473-4.32-8.516-8.973-11.142-14.706-1.794-3.918-4-7.618-6.162-11.34-.95-1.633-2.008-3.18-3.237-4.62-.654-.765-1.286-1.565-1.807-2.423l-5.576-9.357-1.73-2.96c-.15-.246-.422-.418-.706-.688-1.2 2.128-2.402 4.074-3.404 6.122-3.117 6.377-7.24 12.113-11.295 17.9-1.816 2.585-3.78 5.067-5.7 7.585l-8.57 11.227c-3.794 4.8-7.962 9.3-12.252 13.667-5.993 6.1-12.288 11.872-19.16 16.98-1.085.807-1.504 1.7-1.564 3.035-.204 4.528.157 9.022.892 13.468 1.46 8.814 4.106 17.25 8.457 25.107 1.304 2.354 2.567 4.727 4.087 6.95a14.18 14.18 0 0 1 .648 1.022c.5.894.504 1.414.005 1.806-.53.417-1.1.17-1.77-.786-.156-.22-.288-.455-.442-.675-1.965-2.823-3.578-5.85-5.133-8.906-2.23-4.382-4.217-8.857-5.47-13.638-.818-3.123-1.675-6.232-2.212-9.42-.045-.265-.088-.535-.176-.787-.097-.28.018-.7-.404-.783-.1.032-.17.037-.208.08a7.97 7.97 0 0 0-.533.599c-2.562 3.3-5.334 6.402-8.438 9.212-1.393 1.26-2.688 2.64-3.948 4.036l-7.338 8.326-11.058 13.108c-1.3 1.604-2.346 3.437-3.466 5.192-.18.282-.147.7-.213 1.064 1.258.387 2.262-.02 3.256-.426 3.58-1.463 6.724-3.66 9.852-5.88 6.497-4.6 12.244-10.08 17.904-15.65.287-.283.53-.64.87-.83a1.24 1.24 0 0 1 .932-.06c.406.15.588.563.47.995a2.62 2.62 0 0 1-.44.892c-1.232 1.6-2.524 3.144-4.068 4.465-1.328 1.137-2.648 2.288-3.908 3.5-3.1 3-6.4 5.764-9.95 8.213-4.814 3.323-8.73 7.565-12.434 12.023-.677.815-1.174 1.795-1.66 2.747-.184.364-.116.863-.184 1.48zM70.977 67.875c-.344.47-.638.817-.87 1.2l-4.375 7.257c-1.576 2.676-3.3 5.232-5.517 7.433l-6.2 6.08c-.97.93-1.998 1.803-3.05 2.638-1.8 1.42-3.6 2.84-5.446 4.172-2.513 1.802-5.072 3.542-7.638 5.268-1.404.944-2.97 1.53-4.596 2.016-2.508.75-4.97 1.654-7.447 2.5-.22.077-.398.282-.634.456.192.312.306.557.474.758l8.802 10.524c2.233 2.603 4.597 5.092 6.852 7.677 3.805 4.36 7.618 8.716 11.88 12.64l15.985 14.517c5.4 4.757 11.147 9.117 17.26 12.94 12.838 8.03 25.942 15.58 39.7 21.977a147.79 147.79 0 0 0 11.548 4.787c4.18 1.53 8.455 2.7 12.853 3.382 1.05.163 2.138.113 3.2.103.22-.002.514-.216.64-.417.205-.323.035-.685-.237-.887-.968-.718-1.916-1.483-2.96-2.075l-13.743-7.667c-7.827-4.256-15.08-9.357-22.072-14.85-.36-.284-.695-.637-.944-1.022-.343-.53.126-1.357.756-1.297a3.76 3.76 0 0 1 1.496.484 120.19 120.19 0 0 1 4.462 2.758l16.76 10.872c3.397 2.2 6.917 4.153 10.736 5.537 3.04 1.1 6.15 1.953 9.307 2.638a8.12 8.12 0 0 0 3.797-.083c.642-.166 1.304-.35 1.652-1.2-.28-.375-.56-.827-.914-1.207-1.48-1.583-3.175-2.9-5.035-4l-6.4-3.843-7.273-4.342c-1.268-.76-2.578-1.467-3.775-2.33l-11.214-8.25c-1.347-1.005-2.645-2.08-3.92-3.175-.55-.474-1.035-1.048-1.45-1.647-.14-.202-.073-.703.094-.914s.632-.392.872-.3c1.133.385 2.252.76 3.214 1.586 1.527 1.3 3.167 2.494 4.796 3.682 1.467 1.07 2.995 2.055 4.473 3.1 6.577 4.698 13.426 8.952 20.6 12.7 3.23 1.7 6.707 2.32 10.298 2.493.816.04 1.58-.103 2.14-.67.037-.794-.32-1.297-.712-1.75-1.276-1.473-2.453-3.066-3.903-4.346-3.38-2.982-6.966-5.714-10.866-8.006l-7.982-4.732-12.957-7.816c-1.433-.875-2.8-1.858-4.186-2.808-.33-.226-.653-.486-.906-.8-.267-.32-.353-.72-.115-1.125s.755-.58 1.233-.335c.777.396 1.53.84 2.3 1.27 1.286.726 2.596 1.413 3.848 2.193l11.784 7.4c2.802 1.733 5.66 3.375 8.486 5.072 2.258 1.356 4.6 2.528 7.144 3.244 1.675.473 3.404.772 5.124 1.058.926.154 1.88.102 2.77-.3.484-.224.716-.74.4-1.158-.484-.636-.993-1.288-1.615-1.777-2.274-1.785-4.526-3.613-6.92-5.227-4.572-3.083-9.227-6.043-13.865-9.03l-6.673-4.17c-5.8-3.666-11.127-8.027-16.756-11.948-.647-.45-1.24-.98-1.952-1.546l-.636 1.383-6.07 14.077c-2.1 4.935-5.232 9.23-8.456 13.463-.447.586-.978 1.1-1.485 1.65-.182.193-.388.38-.618.506-.383.2-.824.226-1.1-.146-.17-.24-.306-.667-.208-.907.198-.482.534-.92.872-1.33 3.355-4.053 6.446-8.285 8.64-13.097l4.908-11.064c1.7-3.754 2.86-7.684 3.892-11.655a29.46 29.46 0 0 0 .919-6.277c-2.03-2.056-3.877-4.116-5.92-5.96-5.945-5.37-11.687-10.935-17.194-16.756-4.853-5.13-9.86-10.112-15.014-14.948-3.73-3.5-7.165-7.3-10.437-11.225-1.16-1.396-2.386-2.74-3.6-4.1-.304-.335-.67-.613-1.114-1.012zm78.94 77.553c-.14-.35-.243-.813-.487-1.185-.515-.785-1.07-1.548-1.666-2.274-3.127-3.815-6.716-7.143-10.677-10.076l-10.368-7.676c-.084-.062-.246-.02-.466-.03-.452.895-.288 1.946-.562 2.9-.296 1.032-.538 2.08-.805 3.12l-.717 2.797 3.925 2.686 3.78 2.685c3.644 2.552 7.617 4.53 11.53 6.6.53.282 1.107.514 1.7.647a31.11 31.11 0 0 0 3.164.556c.607.073 1.215-.048 1.658-.764zm37.5.815c.33.043.718.14 1.105.136 1.16-.012 2.23-.407 3.302-.8 7.308-2.74 13.676-7.044 19.757-11.815.098-2.334-.1-7.16-.363-8.18-.688.145-1.157.646-1.665 1.048l-17.186 13.634c-.944.752-1.855 1.55-2.725 2.387-.722.695-1.376 1.464-2.03 2.227-.3.362-.52.8-.195 1.374zM6.577 116.887c-1.898 2.324-3.043 5.7-2.795 8.005.28-.298.6-.5.685-.757.178-.498.236-1.04.338-1.563.38-1.957.76-3.914 1.772-5.685zM158.34 69.28c.643 1.857 1.034 3.656 2.048 5.25-.202-1.784-.052-3.603-.723-5.395l-1.325.146zm21.653-60.22c.724.806 1.52.8 2.298.7.846-.1 1.788.103 2.73-.712-1.805-.08-3.343-.18-5.027.013zM114.92 46.716c.086.82.415 1.493 1.055 2.147l1.45-1.052c-1.385-1.183-1.385-1.183-2.505-1.095zm8.784 31.476c1.02 1.8 1.355 2.113 2.532 2.632.037-1.762-1.5-1.972-2.532-2.632zm6.342 118.482c-.328-.292-.45-.48-.615-.535-1.125-.376-2.26-.726-3.393-1.076-.045-.014-.12.043-.17.08s-.082.085-.122.13c.75.922.745.944 1.136.998l3.164.404zM81.092 75.88c-.386-1.735-.848-2.407-2.078-3.087-.097-.053-.3.106-.638.23l1.626 1.848c.294.317.635.6 1.1 1zM7.42 122.366c-.628 1.043-.75 2.2-.57 3.6 1.006-1.208.585-2.43.57-3.6zm79.86-40.05c.605.896 1.408 1.52 2.532 2.367-.55-1.486-.924-2.6-2.532-2.367zm38.218-41.747c1.093.002 1.7-.603 2.286-1.226.154-.164.34-.413-.073-.653l-2.213 1.88zm-11.185 1.687c.487.834.487.834 1.607.472-.618-.56-.618-.56-1.607-.472zM3.34 134.927c-.275.788-.287 1.577-.03 2.668.403-1.087.14-1.878.03-2.668zm155.788 67.652c.3.44.745.502 1.206.5.085-.002.216-.14.238-.237.026-.115-.003-.282-.076-.374-.305-.4-.486-.368-1.368.12zM99.508 36.77c-.455.915-.438 1.507-.148 2.298.497-.768.257-1.367.148-2.298zM264.793 258.1l1.8-.888c-1.218.128-1.218.128-1.8.888zM29.56 200.033c-.25-1.1-.25-1.1-.865-1.48a1.82 1.82 0 0 0 .865 1.481zM184.706 12.6c-.745 0-1.054-.04-1.34.02-.114.025-.286.333-.243.413.073.138.33.3.443.27.275-.095.512-.3 1.14-.704zM207.1 71.8c-.205-.176-.326-.346-.488-.4s-.358.002-.536.027c-.024.003-.066.14-.045.16.127.127.255.304.4.336.172.038.374-.062.66-.123zm-6.34 149.748v-.077h-.696v.077h.696zm-22.957-107.792c-.155.53-.25.7-.25.9 0 .24.003.57.373.5.098-.018.198-.3.2-.478s-.113-.344-.325-.912zM84.976 80.132c-.012-1.115-.012-1.115-.94-1.12l.94 1.12zM236.18 201.18c-.072-.15-.14-.333-.163-.328-.165.038-.32.115-.48.18l.22.4.424-.243zm99.947-43.2l-.2-.012-.037.666.185.01.043-.665zM37.432 245.917c-.026-.107-.02-.25-.087-.308-.077-.067-.22-.058-.333-.082.038.14.054.292.126.4.023.037.2-.012.294-.02zm107.763-48.422l.043-.242c-.182-.046-.363-.122-.547-.13-.1-.004-.225.098-.338.152.094.073.18.2.285.2.18.035.37.01.557.01zm163.377 55.78l.882-.653c-.402-.273-.583-.077-.882.653zM193.316 9.482c-.235-.127-.44-.243-.652-.343-.018-.01-.125.12-.123.123a6.78 6.78 0 0 0 .494.48c.01.007.136-.125.28-.26zm17.172 48.968c-.03-.026-.06-.073-.1-.073-.1-.001-.22.014-.33.023.03.026.06.075.1.075.1.001.22-.015.33-.025zm-1.97-.386c-.024-.04-.044-.108-.072-.1-.128-.013-.257-.008-.386-.01.03.062.062.175.094.176.12.001.243-.034.364-.056zM143.11 14.886c.02-.115.06-.217.036-.235-.084-.065-.235-.167-.28-.136-.147.1-.257.25-.382.382.05.042.106.126.146.12.17-.03.335-.088.48-.13zM30.91 204.914l-.184.256.23.1.1-.3-.156-.055zm93.1-.663l-.355.384c.056.03.14.1.164.082.132-.1.25-.2.372-.303l-.18-.163zm12.253-181.303l-.05-.15c-.033.04-.1.086-.092.115.016.066.068.124.106.185l.037-.15zm-32.22 7.758c.035-.103.123-.23.1-.3-.048-.102-.183-.162-.282-.24-.036.118-.123.25-.093.35.025.085.183.13.284.2zM45.792 242.344l-.454-.337c-.04.055-.123.13-.1.16a3.61 3.61 0 0 0 .253.433l.3-.257zM162.767 12.442c.057.02.134.072.168.052.048-.03.065-.1.096-.17-.062.003-.128-.005-.184.014-.035.012-.054.067-.08.103zm25.804 54.23l.485.314c.052-.1.174-.288.145-.318-.12-.122-.28-.205-.44-.28-.014-.006-.1.16-.2.283zm5.455-53.864l-.048-.162c-.057.053-.13.098-.166.163-.02.034.024.104.04.158l.175-.16zm-176.488 165.7l-.07.1.1.03-.02-.13zm24.104-19.6l-.064.132.226.046c-.008-.05 0-.113-.028-.146s-.087-.023-.134-.032zM190.635 12.35c-.128-.03-.24-.07-.35-.07-.04 0-.08.096-.12.148.095.054.2.15.284.148.063-.001.122-.142.187-.226zm32.66 97.772l-.3-.02c.046.032.1.1.138.1s.108-.045.162-.072zM72.455 65.636c-.05.04-.147.1-.142.12.022.118.077.23.12.344.048-.043.142-.093.137-.127-.02-.115-.073-.226-.115-.338zm24.6-25.657c-.038.012-.094.012-.1.037-.026.044-.027.102-.038.155l.2-.045-.054-.147zm61.638-17.9c-.052-.017-.103-.045-.155-.046-.016 0-.034.07-.05.108.05.016.103.043.154.043.018.001.035-.068.052-.105zm-19.155-8.866l.12.07.024-.106-.143.036zM278.12 280.2l.805-.872c1.717-2.18 3.993-3.577 6.518-4.595 2.494-1.005 5.056-1.286 7.697-.57l3.345.737c2.408.554 4.23 2 5.708 3.898.927 1.198 1.415 2.572 1.467 4.108.057 1.7-.085 3.333-.53 4.983-1.997 7.422-5.403 14.16-9.723 20.475-1.06 1.55-2.022 3.172-2.974 4.794-.684 1.165-1.453 2.24-2.38 3.234-1.367 1.467-2.894 2.815-3.8 4.678-.36.75-1.097 1.02-1.865.947-.86-.083-1.756-.205-2.544-.532-1.42-.6-2.85-1.223-4.14-2.052-4.934-3.17-9.54-6.76-13.6-11.007-4.575-4.775-7.2-10.478-7.998-17.024-.57-4.674.486-8.916 3.317-12.74 1.593-2.152 3.66-3.337 6.267-3.565 1.536-.134 3.092-.15 4.633-.08.854.04 1.722.288 2.537.574 2.114.742 3.992 1.915 5.713 3.343l1.547 1.266zm-6.458-1.8c.017.047.02.116.054.136.05.03.122.027.184.04l-.075-.247a4.74 4.74 0 0 0-.163.072zm-1.593-.708l.012-.114-.157.043.145.07z"/></g></svg>